<svg width="512" height="512" viewBox="0 0 512 512" fill="none" xmlns="http://www.w3.org/2000/svg">
  <!-- Background with Futuristic Gradient -->
  <defs>
    <linearGradient id="bgGradient" x1="0%" y1="0%" x2="100%" y2="100%">
      <stop offset="0%" style="stop-color:#667EEA;stop-opacity:1" />
      <stop offset="50%" style="stop-color:#764BA2;stop-opacity:1" />
      <stop offset="100%" style="stop-color:#667EEA;stop-opacity:1" />
    </linearGradient>

    <linearGradient id="glowGradient" x1="0%" y1="0%" x2="100%" y2="100%">
      <stop offset="0%" style="stop-color:#667EEA;stop-opacity:0.6" />
      <stop offset="100%" style="stop-color:#764BA2;stop-opacity:0.6" />
    </linearGradient>

    <!-- Aurora Glow Filter -->
    <filter id="glow" x="-50%" y="-50%" width="200%" height="200%">
      <feGaussianBlur stdDeviation="20" result="coloredBlur"/>
      <feMerge>
        <feMergeNode in="coloredBlur"/>
        <feMergeNode in="SourceGraphic"/>
      </feMerge>
    </filter>

    <!-- Shimmer Animation -->
    <linearGradient id="shimmer" x1="0%" y1="0%" x2="100%" y2="0%">
      <stop offset="0%" style="stop-color:rgba(255,255,255,0);stop-opacity:0" />
      <stop offset="50%" style="stop-color:rgba(255,255,255,0.3);stop-opacity:1" />
      <stop offset="100%" style="stop-color:rgba(255,255,255,0);stop-opacity:0" />
      <animate attributeName="x1" values="-100%;200%" dur="2.5s" repeatCount="indefinite" />
      <animate attributeName="x2" values="0%;300%" dur="2.5s" repeatCount="indefinite" />
    </linearGradient>
  </defs>

  <!-- Background Rectangle with Rounded Corners -->
  <rect width="512" height="512" rx="110" fill="url(#bgGradient)"/>

  <!-- Aurora Glow Circle -->
  <circle cx="256" cy="256" r="180" fill="url(#glowGradient)" filter="url(#glow)" opacity="0.7"/>

  <!-- Glassmorphism Border -->
  <rect width="512" height="512" rx="110" fill="none" stroke="rgba(255,255,255,0.2)" stroke-width="4"/>

  <!-- Sparkles Icon (Centered) -->
  <g transform="translate(256, 256)" fill="white" filter="drop-shadow(0 4px 8px rgba(0,0,0,0.3))">
    <!-- Main sparkle star -->
    <path d="M 0,-80 L 15,-25 L 70,-10 L 15,5 L 0,60 L -15,5 L -70,-10 L -15,-25 Z" opacity="0.95"/>

    <!-- Top right small sparkle -->
    <path d="M 50,-50 L 57,-35 L 72,-28 L 57,-21 L 50,-6 L 43,-21 L 28,-28 L 43,-35 Z" opacity="0.8"/>

    <!-- Bottom left small sparkle -->
    <path d="M -50,40 L -43,55 L -28,62 L -43,69 L -50,84 L -57,69 L -72,62 L -57,55 Z" opacity="0.8"/>

    <!-- Tiny accent sparkles -->
    <circle cx="80" cy="0" r="6" opacity="0.7"/>
    <circle cx="-80" cy="0" r="6" opacity="0.7"/>
    <circle cx="0" cy="80" r="6" opacity="0.7"/>
    <circle cx="0" cy="-80" r="6" opacity="0.7"/>
  </g>

  <!-- Shimmer Effect Overlay -->
  <rect width="512" height="512" rx="110" fill="url(#shimmer)" opacity="0.3"/>
</svg>
